HIERARCHY
ROOT Hips
{
    OFFSET 0.000000 0.000000 0.000000
    CHANNELS 6 Xposition Yposition Zposition Zrotation Xrotation Yrotation
    JOINT Chest
    {
        OFFSET -0.000000 0.078598 0.000000
        CHANNELS 3 Zrotation Xrotation Yrotation
        JOINT Chest2
        {
            OFFSET -0.000000 0.230468 0.000000
            CHANNELS 3 Zrotation Xrotation Yrotation
            JOINT Neck
            {
                OFFSET -0.000000 0.249638 0.000000
                CHANNELS 3 Zrotation Xrotation Yrotation
                JOINT Head
                {
                    OFFSET -0.000000 0.103998 0.019170
                    CHANNELS 3 Zrotation Xrotation Yrotation
                    End Site
                    {
                        OFFSET -0.000000 0.191701 0.000000
                    }
                }
            }
            JOINT LeftCollar
            {
                OFFSET 0.038274 0.205938 -0.001496
                CHANNELS 3 Zrotation Xrotation Yrotation
                JOINT LeftShoulder
                {
                    OFFSET 0.132388 0.000000 0.000000
                    CHANNELS 3 Zrotation Xrotation Yrotation
                    JOINT LeftElbow
                    {
                        OFFSET 0.250301 0.000000 0.000000
                        CHANNELS 3 Zrotation Xrotation Yrotation
                        JOINT LeftWrist
                        {
                            OFFSET 0.285291 0.000000 0.000000
                            CHANNELS 3 Zrotation Xrotation Yrotation
                            End Site
                            {
                                OFFSET 0.000000 -0.143776 0.000000
                            }
                        }
                    }
                }
            }
            JOINT RightCollar
            {
                OFFSET -0.038406 0.205938 -0.001496
                CHANNELS 3 Zrotation Xrotation Yrotation
                JOINT RightShoulder
                {
                    OFFSET -0.132388 0.000000 0.000000
                    CHANNELS 3 Zrotation Xrotation Yrotation
                    JOINT RightElbow
                    {
                        OFFSET -0.250301 0.000000 0.000000
                        CHANNELS 3 Zrotation Xrotation Yrotation
                        JOINT RightWrist
                        {
                            OFFSET -0.285291 0.000000 0.000000
                            CHANNELS 3 Zrotation Xrotation Yrotation
                            End Site
                            {
                                OFFSET -0.000000 -0.143776 0.000000
                            }
                        }
                    }
                }
            }
        }
    }
    JOINT LeftHip
    {
        OFFSET 0.095851 0.000000 0.000000
        CHANNELS 3 Zrotation Xrotation Yrotation
        JOINT LeftKnee
        {
            OFFSET -0.000000 -0.406444 0.000000
            CHANNELS 3 Zrotation Xrotation Yrotation
            JOINT LeftAnkle
            {
                OFFSET -0.000000 -0.408443 0.000000
                CHANNELS 3 Zrotation Xrotation Yrotation
                JOINT LeftToe
                {
                    OFFSET -0.000000 -0.062303 0.143776
                    CHANNELS 3 Zrotation Xrotation Yrotation
                    End Site
                    {
                        OFFSET -0.000000 0.000000 0.038340
                    }
                }
            }
        }
    }
    JOINT RightHip
    {
        OFFSET -0.095851 0.000000 0.000000
        CHANNELS 3 Zrotation Xrotation Yrotation
        JOINT RightKnee
        {
            OFFSET -0.000000 -0.406444 0.000000
            CHANNELS 3 Zrotation Xrotation Yrotation
            JOINT RightAnkle
            {
                OFFSET -0.000000 -0.408443 0.000000
                CHANNELS 3 Zrotation Xrotation Yrotation
                JOINT RightToe
                {
                    OFFSET -0.000000 -0.062303 0.143776
                    CHANNELS 3 Zrotation Xrotation Yrotation
                    End Site
                    {
                        OFFSET -0.000000 0.000000 0.038340
                    }
                }
            }
        }
    }
}
MOTION
Frames:    13
Frame Time:    0.016667
0.004426    0.888711    0.787349    -0.826291    3.648097    -175.781235    -0.862373    -0.614233    -0.825911    -1.968806    0.818481    -0.259386    1.059435    11.539131    -0.201051    -0.968882    -2.440297    0.146550    12.712511    -3.292502    -0.521180    -11.992954    -3.050794    -8.107889    -1.044883    -11.021290    0.805232    94.706291    1.810686    10.939667    -12.713262    -1.360834    2.390958    19.913729    -3.663223    -1.016167    -3.024284    -7.650415    -1.784210    -90.801872    2.187401    -7.681790    3.674914    9.921495    1.223336    -0.865770    -3.827035    -0.898316    -5.931396    -7.333390    13.263942    0.000000    0.000000    0.000000    -4.758877    11.771357    3.043447    1.087330    -7.242900    0.561738    2.817928    -5.819807    -16.872944    0.000000    0.000000    0.000000    
0.004403    0.888833    0.787805    -0.809428    3.643186    -175.848877    -0.832916    -0.548220    -0.773344    -2.036481    0.777912    -0.242468    1.225393    11.631395    -0.240957    -1.130499    -2.618412    0.161403    12.913881    -2.750174    -0.168711    -12.299264    -3.604051    -8.794345    -0.748566    -10.935687    1.166880    94.309013    1.888689    10.857136    -12.624116    -1.316558    2.416191    19.724060    -4.167319    -1.026967    -2.708917    -7.457087    -1.650996    -90.962708    2.223791    -7.477101    3.712889    9.826702    1.213291    -0.926029    -3.691696    -0.859864    -5.920469    -7.371751    13.284098    0.000000    0.000000    0.000000    -4.755884    11.716962    3.114097    1.082322    -7.230746    0.563746    2.743684    -5.776470    -16.872536    0.000000    0.000000    0.000000    
0.004295    0.888909    0.788154    -0.802882    3.665391    -175.875336    -0.828077    -0.490113    -0.787631    -2.059310    0.801985    -0.246737    1.278090    11.676929    -0.229210    -1.138362    -2.774828    0.184244    12.985404    -2.846690    -0.084916    -12.381396    -3.653381    -8.758296    -0.711326    -10.865336    1.138888    94.283684    1.990130    10.783954    -12.573619    -1.314420    2.465329    19.980015    -3.707628    -0.938935    -3.173226    -7.671604    -1.675846    -91.377403    1.968889    -7.693939    3.733642    9.753807    1.158969    -0.967199    -3.539388    -0.852034    -5.874732    -7.432315    13.340051    0.000000    0.000000    0.000000    -4.759954    11.769279    3.132123    1.070394    -7.349497    0.513692    2.801290    -5.652267    -16.819773    0.000000    0.000000    0.000000    
0.004306    0.888952    0.788623    -0.756030    3.611030    -175.928635    -0.828486    -0.529543    -0.757293    -2.004021    0.858562    -0.235908    1.294770    11.611463    -0.204747    -1.160345    -2.763432    0.215263    12.960665    -2.884498    -0.064185    -12.337456    -3.741269    -8.730475    -0.813721    -10.917320    1.168741    94.904556    2.028944    10.822268    -12.557426    -1.301006    2.503425    20.067944    -3.540947    -0.881140    -3.356965    -7.915638    -1.857706    -89.874298    1.425536    -7.971111    3.791775    9.615543    1.168492    -1.009724    -3.419675    -0.921974    -5.810031    -7.490305    13.424266    0.000000    0.000000    0.000000    -4.703639    11.721571    3.097626    1.029564    -7.449038    0.559414    2.835656    -5.524072    -16.813114    0.000000    0.000000    0.000000    
0.004313    0.888971    0.789067    -0.696544    3.555366    -176.001892    -0.771427    -0.559349    -0.654865    -2.021599    0.902240    -0.200937    1.297571    11.522348    -0.235173    -1.127172    -2.698025    0.180584    12.947034    -2.916507    -0.131909    -12.290282    -3.649198    -8.681113    -0.725365    -10.854416    1.133207    94.520584    1.948624    10.770446    -12.525991    -1.354456    2.477724    20.050598    -3.543665    -0.929827    -3.321627    -8.038039    -1.709775    -89.228561    2.198927    -8.101933    3.851906    9.525208    1.168812    -1.039690    -3.387137    -0.915062    -5.803014    -7.518772    13.482829    0.000000    0.000000    0.000000    -4.636613    11.659395    3.136663    0.976474    -7.536893    0.549408    2.977376    -5.386567    -16.827284    0.000000    0.000000    0.000000    
0.004203    0.888875    0.789303    -0.619040    3.544787    -176.093094    -0.716114    -0.484385    -0.587562    -1.991040    0.810835    -0.180557    1.316705    11.436084    -0.235347    -1.170512    -2.564564    0.189664    13.078332    -2.763436    -0.052524    -12.466878    -3.495342    -8.754077    -0.554252    -10.812564    1.127861    94.405457    1.935506    10.732751    -12.557831    -1.292705    2.543302    20.245602    -3.074194    -0.946898    -3.652398    -8.259060    -1.815325    -89.060265    2.217685    -8.334517    3.921416    9.564515    1.141356    -1.058881    -3.490535    -0.848792    -5.757116    -7.542464    13.500154    0.000000    0.000000    0.000000    -4.570724    11.657896    3.154907    0.949900    -7.623013    0.561176    2.925226    -5.307928    -16.771069    0.000000    0.000000    0.000000    
0.004058    0.888823    0.789518    -0.601767    3.520204    -176.168457    -0.690498    -0.490874    -0.505785    -2.008476    0.844005    -0.152740    1.365156    11.398590    -0.262042    -1.283581    -2.590770    0.184684    13.101943    -2.771662    -0.028597    -12.439745    -3.399492    -8.764723    -0.541144    -10.948645    1.115892    94.678955    1.877663    10.866745    -12.545453    -1.325495    2.529359    20.176622    -3.088608    -0.948977    -3.555509    -8.189878    -1.895758    -89.666489    2.446680    -8.255242    3.918392    9.610063    1.132687    -1.062801    -3.627628    -0.792699    -5.724944    -7.516246    13.515626    0.000000    0.000000    0.000000    -4.572325    11.632382    3.143528    0.939877    -7.678600    0.605439    2.959027    -5.270517    -16.734344    0.000000    0.000000    0.000000    
0.003841    0.888826    0.789804    -0.599697    3.499499    -176.264801    -0.667263    -0.455233    -0.417742    -2.030066    0.820864    -0.123735    1.367425    11.360976    -0.282345    -1.356562    -2.608353    0.171694    13.112378    -2.759466    0.021607    -12.414743    -3.269895    -8.804526    -0.517520    -11.011099    1.136932    94.683311    1.877063    10.929295    -12.577543    -1.373948    2.565791    20.066795    -3.433329    -1.049657    -3.329611    -8.048526    -1.875996    -89.836723    2.502267    -8.106074    3.872253    9.681814    1.029135    -1.023687    -3.807610    -0.613760    -5.733655    -7.422417    13.560755    0.000000    0.000000    0.000000    -4.621683    11.614588    3.163477    0.973676    -7.760315    0.678576    2.988907    -5.207075    -16.738567    0.000000    0.000000    0.000000    
0.003595    0.888819    0.790095    -0.616185    3.461732    -176.351883    -0.694259    -0.425243    -0.353506    -2.016732    0.777227    -0.103032    1.485752    11.360707    -0.359438    -1.700172    -2.668324    0.154411    13.139806    -2.760485    0.105914    -12.404522    -3.273607    -8.834705    -0.558629    -11.011909    1.124055    94.757210    2.141562    10.917554    -12.562229    -1.340399    2.620566    19.960552    -3.553359    -1.110081    -3.236882    -8.083126    -1.897742    -89.797966    2.509662    -8.140636    3.810962    9.725724    0.977793    -0.998991    -3.972708    -0.495448    -5.735774    -7.336790    13.591949    0.000000    0.000000    0.000000    -4.681882    11.559688    3.196638    0.987167    -7.794769    0.698346    3.010523    -5.188804    -16.700441    0.000000    0.000000    0.000000    
0.003403    0.888915    0.790493    -0.618811    3.405337    -176.417358    -0.701543    -0.416995    -0.290803    -1.982488    0.748750    -0.082699    1.419062    11.303571    -0.345646    -1.724738    -2.665366    0.155081    13.103993    -2.767169    0.115871    -12.382273    -3.335261    -8.787831    -0.608663    -11.042469    1.087003    95.462364    2.189743    10.932330    -12.661990    -1.254509    2.635253    19.969257    -3.753459    -1.143919    -3.170327    -8.124334    -1.915755    -91.081329    2.287112    -8.155228    3.769167    9.708184    0.964395    -0.976755    -4.075876    -0.430028    -5.748266    -7.240682    13.628970    0.000000    0.000000    0.000000    -4.730362    11.482512    3.251428    1.014081    -7.833288    0.734401    3.027833    -5.107726    -16.737650    0.000000    0.000000    0.000000    
0.003150    0.888934    0.790657    -0.629316    3.401335    -176.459015    -0.694846    -0.394844    -0.249759    -1.984991    0.753798    -0.069396    1.373958    11.270704    -0.369105    -1.763224    -2.690343    0.124069    13.087155    -2.755823    0.143333    -12.387939    -3.428334    -8.802948    -0.624478    -11.105825    1.143011    95.365738    2.099930    11.001307    -12.680672    -1.258708    2.641663    19.956341    -3.800395    -1.177012    -3.153286    -8.227866    -1.920312    -90.989395    2.178172    -8.261364    3.717257    9.746069    0.973173    -0.944579    -4.163766    -0.388781    -5.761113    -7.185780    13.635146    0.000000    0.000000    0.000000    -4.771292    11.486001    3.300258    1.018522    -7.883193    0.742647    3.041334    -5.059073    -16.759520    0.000000    0.000000    0.000000    
0.003045    0.888982    0.790886    -0.612087    3.393824    -176.479263    -0.690127    -0.340750    -0.256470    -1.947014    0.716149    -0.072381    1.313563    11.228304    -0.354234    -1.789529    -2.705663    0.127882    13.056086    -2.738487    0.233503    -12.422979    -3.486209    -8.820590    -0.593445    -11.169720    1.166916    95.273354    2.016596    11.070918    -12.669541    -1.225613    2.655419    19.896626    -3.854572    -1.160218    -3.128571    -8.268915    -1.903234    -90.976891    2.178050    -8.301772    3.732656    9.744748    1.015103    -0.968389    -4.201976    -0.354684    -5.748465    -7.142942    13.584592    0.000000    0.000000    0.000000    -4.760019    11.475944    3.348376    1.000268    -7.918175    0.705362    3.056992    -4.989635    -16.758348    0.000000    0.000000    0.000000    
0.003006    0.889027    0.791156    -0.598976    3.375129    -176.469131    -0.679723    -0.300299    -0.275057    -1.940026    0.700322    -0.079319    1.264753    11.164111    -0.316048    -1.769384    -2.731203    0.152729    13.135914    -2.650539    0.273607    -12.584951    -3.594575    -8.810040    -0.510681    -11.168581    1.207425    95.128349    1.965513    11.075277    -12.679943    -1.259812    2.638264    19.911152    -3.816882    -1.141732    -3.125215    -8.192288    -1.917727    -90.843208    2.294564    -8.227169    3.752533    9.673036    1.058158    -0.991307    -4.137500    -0.389239    -5.744020    -7.154819    13.563019    0.000000    0.000000    0.000000    -4.736556    11.452722    3.349914    0.972090    -7.948914    0.684203    3.170275    -4.915855    -16.775301    0.000000    0.000000    0.000000    
